{"title":"Main Teri Tu Mera Punjabi 2016 DesiSCR x264-HDF.mp4","uid":15699985,"size":693402661,"categoryP":"video","categoryS":"movies","magnet":"?xt=urn:btih:767c555a929045a6b1bb7868f8d311c2d526e262&amp;dn=Main+Teri+Tu+Mera+Punjabi+2016+DesiSCR+x264-HDF.mp4&amp;tr=udp%3A%2F%2Ftracker.leechers-paradise.org%3A6969&amp;tr=udp%3A%2F%2Fzer0day.ch%3A1337&amp;tr=udp%3A%2F%2Fopen.demonii.com%3A1337&amp;tr=udp%3A%2F%2Ftracker.coppersurfer.tk%3A6969&amp;tr=udp%3A%2F%2Fexodus.desync.com%3A6969","seeders":0,"leechers":32,"uploader":null,"files":1,"time":1472466520,"description":"http://www.movierulzfull.in/ presents:\r\n\r\nMain Teri Tu Mera Punjabi 2016 DesiSCR x264-HDF.mp4\r\n\r\nScreens:\r\n \nhttp://extraimago.com/images/2016/08/29/wqTz.png \nhttp://extraimago.com/images/2016/08/29/wqT0.png \nhttp://extraimago.com/images/2016/08/29/wqTJ.png \nhttp://extraimago.com/images/2016/08/29/wqTK.png \nhttp://extraimago.com/images/2016/08/29/wqTZ.png\r\n\r\nInfo:\r\n\r\nFormat : MPEG-4\r\nFormat profile : Base Media / Version 2\r\nCodec ID : mp42 (isom/iso2/avc1/mp41)\r\nFile size : 661 MiB\r\nDuration : 2 h 8 min\r\nOverall bit rate mode : Variable\r\nOverall bit rate : 720 kb/s\r\nEncoded date : UTC 2016-08-20 08:07:49\r\nTagged date : UTC 2016-08-20 08:07:49\r\nWriting application : HandBrake 0.10.5 2016021100\r\n\r\nVideo\r\nID : 1\r\nFormat : AVC\r\nFormat/Info : Advanced Video Codec\r\nFormat profile :   \r\nFormat settings, CABAC : Yes\r\nFormat settings, ReFrames : 4 frames\r\nCodec ID : avc1\r\nCodec ID/Info : Advanced Video Coding\r\nDuration : 2 h 8 min\r\nBit rate : 648 kb/s\r\nWidth : 640 pixels\r\nHeight : 272 pixels\r\nDisplay aspect ratio : 2.35:1\r\nFrame rate mode : Variable\r\nFrame rate : 29.970 (29970/1000) FPS\r\nMinimum frame rate : 29.960 FPS\r\nMaximum frame rate : 29.970 FPS\r\nColor space : YUV\r\nChroma subsampling : 4:2:0\r\nBit depth : 8 bits\r\nScan type : Progressive\r\nBits/(Pixel*Frame) : 0.124\r\nStream size : 597 MiB (90%)\r\nWriting library : x264 core 142 r2491 24e4fed\r\nEncoding settings : cabac=1 / ref=3 / deblock=1:0:0 / analyse=0x3:0x113 / me=hex / subme=7 / psy=1 / psy_rd=1.00:0.00 / mixed_ref=1 / me_range=16 / chroma_me=1 / trellis=1 / 8x8dct=1 / cqm=0 / deadzone=21,11 / fast_pskip=1 / chroma_qp_offset=-2 / threads=12 / lookahead_threads=2 / sliced_threads=0 / nr=0 / decimate=1 / interlaced=0 / bluray_compat=0 / constrained_intra=0 / bframes=3 / b_pyramid=2 / b_adapt=1 / b_bias=0 / direct=1 / weightb=1 / open_gop=0 / weightp=2 / keyint=300 / keyint_min=30 / scenecut=40 / intra_refresh=0 / rc_lookahead=40 / rc=abr / mbtree=1 / bitrate=648 / ratetol=1.0 / qcomp=0.60 / qpmin=0 / qpmax=69 / qpstep=4 / vbv_maxrate=17500 / vbv_bufsize=17500 / nal_hrd=none / filler=0 / ip_ratio=1.40 / aq=1:1.00\r\nEncoded date : UTC 2016-08-20 08:07:49\r\nTagged date : UTC 2016-08-20 08:07:49\r\nColor range : Limited\r\nColor primaries : BT.601 NTSC\r\nTransfer characteristics : BT.709\r\nMatrix coefficients : BT.601\r\n\r\nAudio\r\nID : 2\r\nFormat : AAC\r\nFormat/Info : Advanced Audio Codec\r\nFormat profile : LC\r\nCodec ID : 40\r\nDuration : 2 h 8 min\r\nBit rate mode : Variable\r\nBit rate : 64.2 kb/s\r\nChannel(s) : 2 channels\r\nChannel positions : Front: L R\r\nSampling rate : 32.0 kHz\r\nFrame rate : 31.250 FPS (1024 spf)\r\nCompression mode : Lossy\r\nStream size : 58.9 MiB (9%)\r\nTitle : Stereo / Stereo\r\nDefault : Yes\r\nAlternate group : 1\r\nEncoded date : UTC 2016-08-20 08:07:49\r\nTagged date : UTC 2016-08-20 08:07:49 \r\n \nhttp://www.movierulzfull.in/main-teri-tu-mera-full-movie-watch/\r\n \nhttp://tvmoviereviews.drupalgardens.com/content/main-teri-tu-mera-review","torrent":{"xt":"urn:btih:767c555a929045a6b1bb7868f8d311c2d526e262","amp;dn":"Main+Teri+Tu+Mera+Punjabi+2016+DesiSCR+x264-HDF.mp4","amp;tr":["udp%3A%2F%2Ftracker.leechers-paradise.org%3A6969","udp%3A%2F%2Fzer0day.ch%3A1337","udp%3A%2F%2Fopen.demonii.com%3A1337","udp%3A%2F%2Ftracker.coppersurfer.tk%3A6969","udp%3A%2F%2Fexodus.desync.com%3A6969"],"infoHash":"767c555a929045a6b1bb7868f8d311c2d526e262","infoHashBuffer":{"type":"Buffer","data":[118,124,85,90,146,144,69,166,177,187,120,104,248,211,17,194,213,38,226,98]},"announce":[],"urlList":[]}}